Coordinates
version=1
nRows=14
nColumns=46
inDegrees=yes

Units are S.I. units (second, meters, Newtons, ...)
Angles are in degrees.

endheader
time	pelvis_tilt	pelvis_list	pelvis_rotation	pelvis_tx	pelvis_ty	pelvis_tz	bb_angle	bb_tx	bb_ty	bb_tz	hip_flexion_r	hip_adduction_r	hip_rotation_r	knee_angle_r	knee_angle_r_beta	ankle_angle_r	subtalar_angle_r	mtp_angle_r	crank_angle_r	hip_flexion_l	hip_adduction_l	hip_rotation_l	knee_angle_l	knee_angle_l_beta	ankle_angle_l	subtalar_angle_l	mtp_angle_l	crank_angle_l	lumbar_extension	lumbar_bending	lumbar_rotation	arm_flex_r	arm_add_r	arm_rot_r	elbow_flex_r	pro_sup_r	wrist_flex_r	wrist_dev_r	arm_flex_l	arm_add_l	arm_rot_l	elbow_flex_l	pro_sup_l	wrist_flex_l	wrist_dev_l
      0.00000000	    -21.63871242	     -5.75005776	     -3.33018670	      0.09494411	      1.12525420	     -0.23738797	      0.00000000	      0.50000000	      0.00000000	      0.25000000	     97.77208230	     -9.73331061	     -6.95982351	    104.53990594	      1.82456556	     26.11027148	      9.48871214	      0.00000000	      0.00000000	     52.41702583	    -17.09380896	     -9.96089678	     50.33858705	      0.87857408	     12.51435278	     11.84825539	      0.00000000	      0.00000000	    -48.53772354	      4.53126482	      7.36259566	     89.70490837	     -3.24019615	     24.63625498	     36.94793216	     24.66668278	      0.00000000	      0.00000000	     89.77404071	      3.59931385	     29.74290945	     47.01933075	     24.95878054	      0.00000000	      0.00000000
      0.00500000	    -21.62684480	     -5.75177852	     -3.34932753	      0.09491534	      1.12531400	     -0.23734093	      0.00000000	      0.50000000	      0.00000000	      0.25000000	     97.75294168	     -9.69674167	     -6.96206789	    104.52471944	      1.82430050	     26.11318911	      9.45141759	      0.00000000	      0.00000000	     52.38809348	    -17.08860332	     -9.92753714	     50.31143880	      0.87810026	     12.52251955	     11.85514567	      0.00000000	      0.00000000	    -48.57049857	      4.52353471	      7.38052692	     89.70752798	     -3.46481812	     25.55441883	     37.73027658	     20.93591765	      0.00000000	      0.00000000	     89.77209067	      3.44008339	     30.24632341	     48.43924039	     18.28411035	      0.00000000	      0.00000000
      0.01000000	    -21.57511059	     -5.78859581	     -3.33843074	      0.09495598	      1.12542160	     -0.23737745	      0.00000000	      0.50000000	      0.00000000	      0.25000000	     97.67869122	     -9.71712279	     -6.99744714	    104.52524731	      1.82430972	     26.14855301	      9.54726564	      0.00000000	      0.00000000	     52.33608773	    -17.12492402	     -9.92482619	     50.31362554	      0.87813842	     12.55225334	     11.99221396	      0.00000000	      0.00000000	    -48.65518599	      4.53946020	      7.52926674	     89.70364968	     -3.50791948	     24.83958498	     37.69992327	     22.44926805	      0.00000000	      0.00000000	     89.77225759	      3.65946860	     29.98884239	     48.10155019	     20.17596443	      0.00000000	      0.00000000
      0.01500000	    -21.62876779	     -5.86095734	     -3.48587983	      0.09500249	      1.12514550	     -0.23691534	      0.00000000	      0.50000000	      0.00000000	      0.25000000	     97.74847574	     -9.53114356	     -7.04833095	    104.52656849	      1.82433278	     26.18633192	      9.90182437	      0.00000000	      0.00000000	     52.33031266	    -17.17092657	     -9.80152570	     50.24331397	      0.87691126	     12.69598018	     12.20521170	      0.00000000	      0.00000000	    -48.70398529	      4.53257260	      7.72194285	     89.69175244	     -3.43074565	     24.06169334	     38.04448684	     24.17679715	      0.00000000	      0.00000000	     89.76757002	      3.69423071	     29.53784994	     48.07230946	     22.11345084	      0.00000000	      0.00000000
      0.02000000	    -21.63421873	     -5.70883375	     -3.34329917	      0.09490841	      1.12530171	     -0.23736630	      0.00000000	      0.50000000	      0.00000000	      0.25000000	     97.81903156	     -9.68934444	     -6.89928998	    104.55335731	      1.82480033	     26.03519030	      9.38067156	      0.00000000	      0.00000000	     52.37035173	    -17.05017403	     -9.91670588	     50.29935970	      0.87788944	     12.58988423	     11.71118543	      0.00000000	      0.00000000	    -48.55272223	      4.45492225	      7.38179071	     89.70206795	     -3.17724928	     24.19276558	     36.94790359	     24.92511877	      0.00000000	      0.00000000	     89.77227996	      3.60586105	     30.06520640	     47.40021380	     23.06153957	      0.00000000	      0.00000000
      0.02500000	    -21.57216530	     -5.80480118	     -3.30159397	      0.09484907	      1.12547727	     -0.23738197	      0.00000000	      0.50000000	      0.00000000	      0.25000000	     97.70353657	     -9.72052546	     -6.99622911	    104.54375616	      1.82463276	     26.13877947	      9.49299248	      0.00000000	      0.00000000	     52.34491279	    -17.13665428	     -9.81097755	     50.33760810	      0.87855700	     12.74016520	     12.18159894	      0.00000000	      0.00000000	    -48.72827644	      4.57926437	      7.51226378	     89.69464026	     -3.24039171	     23.77742790	     37.38941328	     25.77586961	      0.00000000	      0.00000000	     89.76846097	      3.54038384	     29.73864616	     47.72988178	     24.04487640	      0.00000000	      0.00000000
      0.03000000	    -21.68690227	     -5.74856607	     -3.31136426	      0.09477213	      1.12524393	     -0.23738039	      0.00000000	      0.50000000	      0.00000000	      0.25000000	     97.86135361	     -9.70403779	     -6.93645893	    104.54975403	      1.82473744	     26.02524951	      9.34126610	      0.00000000	      0.00000000	     52.47520042	    -17.08473645	     -9.83952478	     50.34976851	      0.87876924	     12.63460119	     11.96790983	      0.00000000	      0.00000000	    -48.49624278	      4.55023459	      7.36978806	     89.70510870	     -3.12115265	     24.33269132	     36.66808453	     25.69066452	      0.00000000	      0.00000000	     89.77306582	      3.39162792	     30.20146840	     47.32154445	     24.05433382	      0.00000000	      0.00000000
      0.03500000	    -21.68273734	     -5.73703704	     -3.32478200	      0.09480719	      1.12528205	     -0.23737032	      0.00000000	      0.50000000	      0.00000000	      0.25000000	     97.85635669	     -9.69179332	     -6.92726895	    104.55152493	      1.82476835	     26.04933832	      9.35317967	      0.00000000	      0.00000000	     52.45025657	    -17.08728603	     -9.85668978	     50.32776720	      0.87838524	     12.64073148	     12.03849408	      0.00000000	      0.00000000	    -48.50676157	      4.51256202	      7.36741348	     89.70341865	     -3.13929097	     24.26363498	     36.58141066	     26.21886151	      0.00000000	      0.00000000	     89.77213842	      3.39426836	     30.21268790	     47.21856498	     24.68347374	      0.00000000	      0.00000000
      0.04000000	    -21.56377069	     -5.79044787	     -3.38532545	      0.09489638	      1.12550630	     -0.23723564	      0.00000000	      0.50000000	      0.00000000	      0.25000000	     97.69255151	     -9.60901820	     -6.96833720	    104.53721311	      1.82451856	     26.15239296	      9.61967071	      0.00000000	      0.00000000	     52.32359464	    -17.25326146	     -9.97237221	     50.37670497	      0.87923937	     12.68647287	     12.42851709	      0.00000000	      0.00000000	    -48.71589784	      4.48180068	      7.71323497	     89.69301234	     -3.38693910	     23.34962571	     37.03331493	     27.73059263	      0.00000000	      0.00000000	     89.77342852	      3.71559463	     29.90437555	     46.98313224	     26.69058662	      0.00000000	      0.00000000
      0.04500000	    -21.66084189	     -5.74765617	     -3.31391070	      0.09481254	      1.12531519	     -0.23740004	      0.00000000	      0.50000000	      0.00000000	      0.25000000	     97.82924427	     -9.69947534	     -6.93368454	    104.55058889	      1.82475201	     26.05174802	      9.35735095	      0.00000000	      0.00000000	     52.43506203	    -17.09307893	     -9.86113694	     50.34153804	      0.87862559	     12.66397417	     12.06329899	      0.00000000	      0.00000000	    -48.53851668	      4.52268255	      7.38077909	     89.70491864	     -3.45106786	     25.39807553	     37.60788026	     21.17041148	      0.00000000	      0.00000000	     89.77123382	      3.36128672	     30.44740301	     48.50305789	     18.54056543	      0.00000000	      0.00000000
      0.05000000	    -21.58808378	     -5.77431950	     -3.35255931	      0.09486589	      1.12548570	     -0.23731958	      0.00000000	      0.50000000	      0.00000000	      0.25000000	     97.73033002	     -9.65577044	     -6.96719941	    104.53934983	      1.82455585	     26.08909492	      9.50739829	      0.00000000	      0.00000000	     52.33969450	    -17.17565215	     -9.91793083	     50.33988011	      0.87859665	     12.71215340	     12.26433255	      0.00000000	      0.00000000	    -48.66828125	      4.50015505	      7.50054059	     89.69801674	     -3.44294011	     24.58515654	     37.74806237	     22.71759546	      0.00000000	      0.00000000	     89.77039033	      3.46813715	     30.18304749	     48.31373615	     20.45064181	      0.00000000	      0.00000000
      0.05500000	    -21.66928292	     -5.76303061	     -3.31097841	      0.09478870	      1.12530556	     -0.23740692	      0.00000000	      0.50000000	      0.00000000	      0.25000000	     97.83715770	     -9.69315557	     -6.94163720	    104.54385999	      1.82463457	     26.02672588	      9.35804465	      0.00000000	      0.00000000	     52.45484709	    -17.09961922	     -9.84252633	     50.34686683	      0.87871859	     12.65026814	     12.05848428	      0.00000000	      0.00000000	    -48.53285782	      4.56141431	      7.34626488	     89.70476560	     -3.20784731	     24.86465163	     37.24405721	     22.86962512	      0.00000000	      0.00000000	     89.77159107	      3.25513801	     30.44832042	     48.12974255	     20.77274956	      0.00000000	      0.00000000
      0.06000000	    -21.59582759	     -5.79619326	     -3.34550634	      0.09484793	      1.12543626	     -0.23735322	      0.00000000	      0.50000000	      0.00000000	      0.25000000	     97.73492498	     -9.65919273	     -6.96533502	    104.54311059	      1.82462149	     26.13118085	      9.62939096	      0.00000000	      0.00000000	     52.37146906	    -17.19664071	     -9.89920462	     50.36975102	      0.87911800	     12.75970550	     12.39085879	      0.00000000	      0.00000000	    -48.69179441	      4.53775597	      7.54028878	     89.69529704	     -3.32960203	     24.08642225	     37.61125689	     24.14958900	      0.00000000	      0.00000000	     89.76996814	      3.42409102	     30.09046019	     48.08221539	     22.28278582	      0.00000000	      0.00000000
      0.06500000	    -21.65798393	     -5.74855570	     -3.31588553	      0.09482811	      1.12533854	     -0.23742133	      0.00000000	      0.50000000	      0.00000000	      0.25000000	     97.82721076	     -9.70138820	     -6.93844206	    104.55224660	      1.82478094	     26.02932979	      9.35501382	      0.00000000	      0.00000000	     52.42654204	    -17.09361903	     -9.86663248	     50.32869712	      0.87840147	     12.65412584	     12.05702269	      0.00000000	      0.00000000	    -48.54516051	      4.53340025	      7.39286526	     89.70284360	     -3.14045012	     24.22700365	     36.90085374	     24.82067715	      0.00000000	      0.00000000	     89.77242553	      3.39721137	     30.24529374	     47.54085313	     23.13714866	      0.00000000	      0.00000000
